# xmcd CD database file
#
# Track frame offsets:
#	180
#	14507
#	29285
#	43660
#	56100
#	69130
#	79914
#	93335
#	108621
#	123617
#	135746
#
# Disc length: 1984 seconds
#
# Revision: 0
# Processed by: cddbd v1.5.2PL0 Copyright (c) Steve Scherf et al.
# Submitted via: CDex 1.51
#
DISCID=9607be0b
DTITLE=Lance Miller - Too Much To Dream
DYEAR=1997
DGENRE=Country
TTITLE0=Even If I Have To Say So Myself
TTITLE1=I Better Leave
TTITLE2=Too Much To Dream
TTITLE3=Sweet Temptation
TTITLE4=However Long Forever Is
TTITLE5=In With The Out Crowd
TTITLE6=Shave This Strangers Face
TTITLE7=Fe Fi Fo Fum
TTITLE8=If You Want A Fool Around
TTITLE9=Nothing's Too Good For Daddy's Little Girl
TTITLE10=I Had To Go Crazy And Back
EXTD=YEAR: 1997
EXTT0=
EXTT1=
EXTT2=
EXTT3=
EXTT4=
EXTT5=
EXTT6=
EXTT7=
EXTT8=
EXTT9=
EXTT10=
PLAYORDER=
